<?xml version="1.0" encoding="iso-8859-1"?>
<!-- Generator: Adobe Illustrator 19.0.0, SVG Export Plug-In . SVG Version: 6.00 Build 0)  -->
<svg version="1.1" id="Layer_1" xmlns="http://www.w3.org/2000/svg" xmlns:xlink="http://www.w3.org/1999/xlink" x="0px" y="0px"
	 viewBox="0 0 503.322 503.322" style="enable-background:new 0 0 503.322 503.322;" xml:space="preserve">
<path style="fill:#546080;" d="M295.051,34.712V17.356C295.051,7.81,287.241,0,277.695,0h-52.068
	c-9.546,0-17.356,7.81-17.356,17.356v17.356h-34.712c-5.207,0-8.678,3.471-8.678,8.678v60.746c0,5.207,3.471,8.678,8.678,8.678
	h156.203c5.207,0,8.678-3.471,8.678-8.678V43.39c0-5.207-3.471-8.678-8.678-8.678H295.051z"/>
<g>
	<path style="fill:#EFEADD;" d="M390.508,60.746h-52.068v43.39c0,5.207-3.471,8.678-8.678,8.678H173.559
		c-5.207,0-8.678-4.339-8.678-8.678v-43.39h-52.068c-19.092,0-34.712,15.62-34.712,34.712v208.271l69.424-43.39l60.746,43.39
		l60.746-52.068l60.746,52.068l95.458-52.068V95.458C425.22,76.366,409.6,60.746,390.508,60.746"/>
	<path style="fill:#EFEADD;" d="M269.017,303.729l-60.746,52.068l-60.746-52.068H78.102V468.61c0,19.092,15.62,34.712,34.712,34.712
		h277.695c19.092,0,34.712-15.62,34.712-34.712V312.407l-104.136,43.39L269.017,303.729z"/>
</g>
<g>
</g>
<g>
</g>
<g>
</g>
<g>
</g>
<g>
</g>
<g>
</g>
<g>
</g>
<g>
</g>
<g>
</g>
<g>
</g>
<g>
</g>
<g>
</g>
<g>
</g>
<g>
</g>
<g>
</g>
</svg>
